<?xml version="1.0"?>
<!DOCTYPE svg PUBLIC "-//W3C//DTD SVG 1.1//EN" "http://www.w3.org/Graphics/SVG/1.1/DTD/svg11.dtd">
                <svg xmlns="http://www.w3.org/2000/svg" version="1.1"
    width="2267.716535433071"
    height="1133.8582677165355"
    viewbox="0 0 2267.716535433071 1133.8582677165355">
                <desc>Laser SVG Slices from Object: Sphere_net. Exported from Blender3D with the Laser Slicer Script</desc>

<g>
<polygon points="123.163,910.678 125.296,910.031 127.26,908.98 128.98,907.57 130.40,905.84 131.45,903.88 132.10,901.75 132.31,899.53 132.10,897.31 131.45,895.18 130.40,893.21 128.98,891.49 127.26,890.07 125.30,889.02 123.16,888.38 120.95,888.16 118.73,888.38 116.59,889.02 114.63,890.07 112.91,891.49 111.49,893.21 110.44,895.18 109.79,897.31 109.58,899.53 109.79,901.75 110.44,903.88 111.49,905.84 112.91,907.57 114.63,908.98 116.59,910.03 118.73,910.68 120.95,910.90 " style="fill:none;stroke:rgb(255,0,0);stroke-width:1.0" />
<polygon points="2097.45,92.27 2096.80,90.14 2095.75,88.17 2094.34,86.45 2092.62,85.04 2090.65,83.98 2088.52,83.34 2086.30,83.12 2084.08,83.34 2081.95,83.98 2079.98,85.04 2078.26,86.45 2076.85,88.17 2075.80,90.14 2075.15,92.27 2074.93,94.49 2075.15,96.71 2075.80,98.84 2076.85,100.80 2078.26,102.53 2079.98,103.94 2081.95,104.99 2084.08,105.64 2086.30,105.86 2088.52,105.64 2090.65,104.99 2092.62,103.94 2094.34,102.53 2095.75,100.80 2096.80,98.84 2097.45,96.71 2097.67,94.49 " style="fill:none;stroke:rgb(255,0,0);stroke-width:1.0" />
<polygon points="2078.26,907.57 2079.98,908.98 2081.95,910.03 2084.08,910.68 2086.30,910.90 2088.52,910.68 2090.65,910.03 2092.62,908.98 2094.34,907.57 2095.75,905.84 2096.80,903.88 2097.45,901.75 2097.67,899.53 2097.45,897.31 2096.80,895.18 2095.75,893.21 2094.34,891.49 2092.62,890.07 2090.65,889.02 2088.52,888.38 2086.30,888.16 2084.08,888.38 2081.95,889.02 2079.98,890.07 2078.26,891.49 2076.85,893.21 2075.80,895.18 2075.15,897.31 2074.93,899.53 2075.15,901.75 2075.80,903.88 2076.85,905.84 " style="fill:none;stroke:rgb(255,0,0);stroke-width:1.0" />
<polygon points="128.98,86.45 127.26,85.04 125.30,83.98 123.16,83.34 120.95,83.12 118.73,83.34 116.59,83.98 114.63,85.04 112.91,86.45 111.49,88.17 110.44,90.14 109.79,92.27 109.58,94.49 109.79,96.71 110.44,98.84 111.49,100.80 112.91,102.53 114.63,103.94 116.59,104.99 118.73,105.64 120.95,105.86 123.16,105.64 125.30,104.99 127.26,103.94 128.98,102.53 130.40,100.80 131.45,98.84 132.10,96.71 132.31,94.49 132.10,92.27 131.45,90.14 130.40,88.17 " style="fill:none;stroke:rgb(255,0,0);stroke-width:1.0" />
<polygon points="2237.48,990.24 2237.48,7.56 7.56,7.56 7.56,990.24 " style="fill:none;stroke:rgb(255,0,0);stroke-width:1.0" />
</g>
</svg>
