<?xml version="1.0"?>
<!DOCTYPE svg PUBLIC "-//W3C//DTD SVG 1.1//EN" "http://www.w3.org/Graphics/SVG/1.1/DTD/svg11.dtd">
                <svg xmlns="http://www.w3.org/2000/svg" version="1.1"
    width="2267.716535433071"
    height="1133.8582677165355"
    viewbox="0 0 2267.716535433071 1133.8582677165355">
                <desc>Laser SVG Slices from Object: Sphere_net. Exported from Blender3D with the Laser Slicer Script</desc>

<g>
<polygon points="364.724,138.024 302.443,138.024 296.33,138.71 290.52,140.74 285.32,144.02 280.97,148.37 277.69,153.58 275.66,159.38 274.97,165.49 274.97,202.86 274.97,283.42 274.97,363.98 274.97,444.54 274.97,525.10 274.97,562.46 275.66,568.58 277.69,574.38 280.97,579.59 285.32,583.94 290.52,587.22 296.33,589.25 302.44,589.94 364.72,589.94 427.01,589.94 433.12,589.25 438.92,587.22 444.13,583.94 448.48,579.59 451.76,574.38 453.79,568.58 454.48,562.46 454.48,525.10 454.48,444.54 454.48,363.98 454.48,283.42 454.48,202.86 454.48,165.49 453.79,159.38 451.76,153.58 448.48,148.37 444.13,144.02 438.92,140.74 433.12,138.71 427.01,138.02 " style="fill:none;stroke:rgb(255,0,0);stroke-width:1.0" />
<polygon points="123.16,967.37 125.30,966.72 127.26,965.67 128.98,964.26 130.40,962.54 131.45,960.57 132.10,958.44 132.31,956.22 132.10,954.00 131.45,951.87 130.40,949.90 128.98,948.18 127.26,946.77 125.30,945.72 123.16,945.07 120.95,944.85 118.73,945.07 116.59,945.72 114.63,946.77 112.91,948.18 111.49,949.90 110.44,951.87 109.79,954.00 109.58,956.22 109.79,958.44 110.44,960.57 111.49,962.54 112.91,964.26 114.63,965.67 116.59,966.72 118.73,967.37 120.95,967.59 " style="fill:none;stroke:rgb(255,0,0);stroke-width:1.0" />
<polygon points="2097.45,148.96 2096.80,146.83 2095.75,144.86 2094.34,143.14 2092.62,141.73 2090.65,140.68 2088.52,140.03 2086.30,139.81 2084.08,140.03 2081.95,140.68 2079.98,141.73 2078.26,143.14 2076.85,144.86 2075.80,146.83 2075.15,148.96 2074.93,151.18 2075.15,153.40 2075.80,155.53 2076.85,157.50 2078.26,159.22 2079.98,160.63 2081.95,161.68 2084.08,162.33 2086.30,162.55 2088.52,162.33 2090.65,161.68 2092.62,160.63 2094.34,159.22 2095.75,157.50 2096.80,155.53 2097.45,153.40 2097.67,151.18 " style="fill:none;stroke:rgb(255,0,0);stroke-width:1.0" />
<polygon points="2078.26,964.26 2079.98,965.67 2081.95,966.72 2084.08,967.37 2086.30,967.59 2088.52,967.37 2090.65,966.72 2092.62,965.67 2094.34,964.26 2095.75,962.54 2096.80,960.57 2097.45,958.44 2097.67,956.22 2097.45,954.00 2096.80,951.87 2095.75,949.90 2094.34,948.18 2092.62,946.77 2090.65,945.72 2088.52,945.07 2086.30,944.85 2084.08,945.07 2081.95,945.72 2079.98,946.77 2078.26,948.18 2076.85,949.90 2075.80,951.87 2075.15,954.00 2074.93,956.22 2075.15,958.44 2075.80,960.57 2076.85,962.54 " style="fill:none;stroke:rgb(255,0,0);stroke-width:1.0" />
<polygon points="128.98,143.14 127.26,141.73 125.30,140.68 123.16,140.03 120.95,139.81 118.73,140.03 116.59,140.68 114.63,141.73 112.91,143.14 111.49,144.86 110.44,146.83 109.79,148.96 109.58,151.18 109.79,153.40 110.44,155.53 111.49,157.50 112.91,159.22 114.63,160.63 116.59,161.68 118.73,162.33 120.95,162.55 123.16,162.33 125.30,161.68 127.26,160.63 128.98,159.22 130.40,157.50 131.45,155.53 132.10,153.40 132.31,151.18 132.10,148.96 131.45,146.83 130.40,144.86 " style="fill:none;stroke:rgb(255,0,0);stroke-width:1.0" />
<polygon points="265.93,670.30 267.70,668.33 269.67,666.56 271.83,665.03 274.14,663.75 276.58,662.74 279.13,662.01 281.73,661.57 284.37,661.42 399.72,661.42 402.36,661.57 404.97,662.01 407.51,662.74 409.95,663.75 412.27,665.03 414.43,666.56 416.40,668.33 418.16,670.30 419.69,672.45 420.97,674.77 421.98,677.21 422.72,679.76 423.16,682.36 423.31,685.00 423.31,956.07 423.31,1015.78 423.16,1018.42 422.72,1021.03 421.98,1023.57 420.97,1026.02 419.69,1028.33 418.16,1030.49 416.40,1032.46 414.43,1034.22 412.27,1035.75 409.95,1037.03 407.51,1038.05 404.97,1038.78 402.36,1039.22 399.72,1039.37 284.37,1039.37 281.73,1039.22 279.13,1038.78 276.58,1038.05 274.14,1037.03 271.83,1035.75 269.67,1034.22 267.70,1032.46 265.93,1030.49 264.40,1028.33 263.12,1026.02 262.11,1023.57 261.38,1021.03 260.94,1018.42 260.79,1015.78 260.79,685.00 260.94,682.36 261.38,679.76 262.11,677.21 263.12,674.77 264.40,672.45 " style="fill:none;stroke:rgb(255,0,0);stroke-width:1.0" />
<polygon points="2237.48,1122.52 2237.48,7.56 7.56,7.56 7.56,1122.52 " style="fill:none;stroke:rgb(255,0,0);stroke-width:1.0" />
</g>
</svg>
