<?xml version="1.0"?>
<!DOCTYPE svg PUBLIC "-//W3C//DTD SVG 1.1//EN" "http://www.w3.org/Graphics/SVG/1.1/DTD/svg11.dtd">
                <svg xmlns="http://www.w3.org/2000/svg" version="1.1"
    width="2267.716535433071"
    height="1133.8582677165355"
    viewbox="0 0 2267.716535433071 1133.8582677165355">
                <desc>Laser SVG Slices from Object: Sphere_net. Exported from Blender3D with the Laser Slicer Script</desc>

<g>
<polyline points="1553.386,75.591 1749.921,75.600 1749.92,124.72 1825.51,124.72 1825.51,86.93 1882.20,86.93 1882.20,124.72 1957.80,124.72 1957.80,994.02 1882.20,994.02 1882.20,1031.66 1825.51,1031.81 1825.51,994.02 578.27,994.02 578.27,1031.66 521.57,1031.81 521.57,994.02 445.98,994.02 445.98,589.94 364.72,589.94 302.44,589.94 296.33,589.25 290.52,587.22 285.32,583.94 280.97,579.59 277.69,574.38 275.66,568.58 274.97,562.47 274.97,152.20 275.66,146.08 277.69,140.28 280.97,135.07 285.32,130.72 290.52,127.45 296.33,125.41 302.44,124.72 521.58,124.72 521.58,86.93 578.27,86.93 578.27,124.72 653.86,124.72 653.86,75.60 1458.90,75.59 1458.90,7.56 7.56,7.56 7.56,1122.52 2237.48,1122.52 2237.48,7.56 1553.39,7.56 1553.39,75.60 1651.66,75.60 " style="fill:none;stroke:rgb(255,0,0);stroke-width:1.0" />
<polygon points="1874.65,347.56 1874.65,309.92 1931.34,309.92 1931.34,347.56 " style="fill:none;stroke:rgb(255,0,0);stroke-width:1.0" />
<polygon points="1878.43,426.93 1878.43,389.29 1935.12,389.29 1935.12,426.93 " style="fill:none;stroke:rgb(255,0,0);stroke-width:1.0" />
<polygon points="1878.43,234.33 1878.43,272.13 1935.12,272.13 1935.12,234.33 " style="fill:none;stroke:rgb(255,0,0);stroke-width:1.0" />
<polygon points="1874.65,154.96 1874.65,192.76 1931.34,192.76 1931.34,154.96 " style="fill:none;stroke:rgb(255,0,0);stroke-width:1.0" />
<polygon points="2038.00,960.57 2039.05,962.54 2040.47,964.26 2042.19,965.67 2044.15,966.72 2046.29,967.37 2048.50,967.59 2124.09,967.59 2126.31,967.37 2128.45,966.72 2130.41,965.67 2132.13,964.26 2133.55,962.54 2134.60,960.57 2135.24,958.44 2135.46,956.22 2135.24,954.00 2134.60,951.87 2133.55,949.90 2132.13,948.18 2130.41,946.77 2128.45,945.72 2126.31,945.07 2124.09,944.85 2048.50,944.85 2046.29,945.07 2044.15,945.72 2042.19,946.77 2040.47,948.18 2039.05,949.90 2038.00,951.87 2037.35,954.00 2037.14,956.22 2037.35,958.44 " style="fill:none;stroke:rgb(255,0,0);stroke-width:1.0" />
<polygon points="160.96,967.37 163.09,966.72 165.06,965.67 166.78,964.26 168.19,962.54 169.24,960.57 169.89,958.44 170.11,956.22 169.89,954.00 169.24,951.87 168.19,949.90 166.78,948.18 165.06,946.77 163.09,945.72 160.96,945.07 158.74,944.85 83.15,944.85 80.93,945.07 78.80,945.72 76.83,946.77 75.11,948.18 73.70,949.90 72.65,951.87 72.00,954.00 71.78,956.22 72.00,958.44 72.65,960.57 73.70,962.54 75.11,964.26 76.83,965.67 78.80,966.72 80.93,967.37 83.15,967.59 158.74,967.59 " style="fill:none;stroke:rgb(255,0,0);stroke-width:1.0" />
<polygon points="2132.13,159.22 2133.55,157.50 2134.60,155.53 2135.24,153.40 2135.46,151.18 2135.24,148.96 2134.60,146.83 2133.55,144.87 2132.13,143.14 2130.41,141.73 2128.45,140.68 2126.31,140.03 2124.09,139.81 2048.50,139.81 2046.29,140.03 2044.15,140.68 2042.19,141.73 2040.47,143.14 2039.05,144.87 2038.00,146.83 2037.35,148.96 2037.14,151.18 2037.35,153.40 2038.00,155.53 2039.05,157.50 2040.47,159.22 2042.19,160.63 2044.15,161.68 2046.29,162.33 2048.50,162.55 2124.09,162.55 2126.31,162.33 2128.45,161.68 2130.41,160.63 " style="fill:none;stroke:rgb(255,0,0);stroke-width:1.0" />
<polygon points="76.83,141.73 75.11,143.14 73.70,144.87 72.65,146.83 72.00,148.96 71.78,151.18 72.00,153.40 72.65,155.53 73.70,157.50 75.11,159.22 76.83,160.63 78.80,161.68 80.93,162.33 83.15,162.55 158.74,162.55 160.96,162.33 163.09,161.68 165.06,160.63 166.78,159.22 168.19,157.50 169.24,155.53 169.89,153.40 170.11,151.18 169.89,148.96 169.24,146.83 168.19,144.87 166.78,143.14 165.06,141.73 163.09,140.68 160.96,140.03 158.74,139.81 83.15,139.81 80.93,140.03 78.80,140.68 " style="fill:none;stroke:rgb(255,0,0);stroke-width:1.0" />
<polygon points="420.97,1026.02 421.98,1023.57 422.72,1021.03 423.16,1018.42 423.31,1015.78 423.31,685.00 423.16,682.36 422.72,679.76 421.98,677.21 420.97,674.77 419.69,672.46 418.16,670.30 416.40,668.33 414.43,666.56 412.27,665.03 409.95,663.75 407.51,662.74 404.97,662.01 402.36,661.57 399.72,661.42 284.37,661.42 281.73,661.57 279.13,662.01 276.58,662.74 274.14,663.75 271.83,665.03 269.67,666.56 267.70,668.33 265.93,670.30 264.40,672.46 263.12,674.77 262.11,677.21 261.38,679.76 260.94,682.36 260.79,685.00 260.79,1015.78 260.94,1018.42 261.38,1021.03 262.11,1023.57 263.12,1026.02 264.40,1028.33 265.93,1030.49 267.70,1032.46 269.67,1034.22 271.83,1035.76 274.14,1037.03 276.58,1038.05 279.13,1038.78 281.73,1039.22 284.37,1039.37 399.72,1039.37 402.36,1039.22 404.97,1038.78 407.51,1038.05 409.95,1037.03 412.27,1035.76 414.43,1034.22 416.40,1032.46 418.16,1030.49 419.69,1028.33 " style="fill:none;stroke:rgb(255,0,0);stroke-width:1.0" />
</g>
</svg>
