<?xml version="1.0"?>
<!DOCTYPE svg PUBLIC "-//W3C//DTD SVG 1.1//EN" "http://www.w3.org/Graphics/SVG/1.1/DTD/svg11.dtd">
                <svg xmlns="http://www.w3.org/2000/svg" version="1.1"
    width="2267.716535433071"
    height="1133.8582677165355"
    viewbox="0 0 2267.716535433071 1133.8582677165355">
                <desc>Laser SVG Slices from Object: Sphere_net. Exported from Blender3D with the Laser Slicer Script</desc>

<g>
<polygon points="453.544,1122.520 453.544,1065.827 1954.02,1065.83 1954.02,64.25 234.33,64.25 234.33,1065.83 245.67,1065.83 245.67,1122.52 7.56,1122.52 7.56,7.56 2237.48,7.56 2237.48,1122.52 " style="fill:none;stroke:rgb(255,0,0);stroke-width:1.0" />
<polygon points="125.30,1004.52 127.26,1003.47 128.98,1002.05 130.40,1000.33 131.45,998.37 132.10,996.23 132.31,994.02 132.31,918.43 132.10,916.21 131.45,914.07 130.40,912.11 128.98,910.39 127.26,908.97 125.30,907.92 123.16,907.27 120.94,907.06 118.73,907.27 116.59,907.92 114.63,908.97 112.91,910.39 111.49,912.11 110.44,914.07 109.79,916.21 109.58,918.43 109.58,994.02 109.79,996.23 110.44,998.37 111.49,1000.33 112.91,1002.05 114.63,1003.47 116.59,1004.52 118.73,1005.17 120.94,1005.38 123.16,1005.17 " style="fill:none;stroke:rgb(255,0,0);stroke-width:1.0" />
<polygon points="2078.26,105.35 2076.85,107.07 2075.80,109.04 2075.15,111.17 2074.93,113.39 2074.93,188.98 2075.15,191.19 2075.80,193.33 2076.85,195.29 2078.26,197.02 2079.98,198.43 2081.95,199.48 2084.08,200.13 2086.30,200.35 2088.52,200.13 2090.65,199.48 2092.62,198.43 2094.34,197.02 2095.75,195.29 2096.80,193.33 2097.45,191.19 2097.67,188.98 2097.67,113.39 2097.45,111.17 2096.80,109.04 2095.75,107.07 2094.34,105.35 2092.62,103.93 2090.65,102.88 2088.52,102.24 2086.30,102.02 2084.08,102.24 2081.95,102.88 2079.98,103.93 " style="fill:none;stroke:rgb(255,0,0);stroke-width:1.0" />
<polygon points="128.98,105.35 127.26,103.93 125.30,102.88 123.16,102.24 120.94,102.02 118.73,102.24 116.59,102.88 114.63,103.93 112.91,105.35 111.49,107.07 110.44,109.04 109.79,111.17 109.58,113.39 109.58,188.98 109.79,191.19 110.44,193.33 111.49,195.29 112.91,197.02 114.63,198.43 116.59,199.48 118.73,200.13 120.94,200.35 123.16,200.13 125.30,199.48 127.26,198.43 128.98,197.02 130.40,195.29 131.45,193.33 132.10,191.19 132.31,188.98 132.31,113.39 132.10,111.17 131.45,109.04 130.40,107.07 " style="fill:none;stroke:rgb(255,0,0);stroke-width:1.0" />
<polygon points="2076.85,1000.33 2078.26,1002.05 2079.98,1003.47 2081.95,1004.52 2084.08,1005.17 2086.30,1005.38 2088.52,1005.17 2090.65,1004.52 2092.62,1003.47 2094.34,1002.05 2095.75,1000.33 2096.80,998.37 2097.45,996.23 2097.67,994.02 2097.67,918.43 2097.45,916.21 2096.80,914.07 2095.75,912.11 2094.34,910.39 2092.62,908.97 2090.65,907.92 2088.52,907.27 2086.30,907.06 2084.08,907.27 2081.95,907.92 2079.98,908.97 2078.26,910.39 2076.85,912.11 2075.80,914.07 2075.15,916.21 2074.93,918.43 2074.93,994.02 2075.15,996.23 2075.80,998.37 " style="fill:none;stroke:rgb(255,0,0);stroke-width:1.0" />
</g>
</svg>
